<svg width="1180" height="820" viewBox="0 0 1180 820" fill="none" xmlns="http://www.w3.org/2000/svg">
<g clip-path="url(#clip0_181_168)">
<path fill-rule="evenodd" clip-rule="evenodd" d="M321.842 743.42C334.02 721.591 350.653 685.14 341.684 654.083C329.368 611.436 285.297 647.654 274.121 639.341C251.796 622.733 275.298 568.026 240.462 533.296C204.513 497.456 202.014 556.949 182.027 555.486C158.417 553.757 146.299 530.921 128.657 517.21C85.0155 483.295 18.8208 482.133 3.28661 524.78C-14.7314 574.246 37.0819 574.841 44.8504 612.878C49.6516 636.383 28.9287 655.281 24.0137 677.008C12.2747 728.899 39.9317 743.804 70.8867 742.995C85.9294 742.602 264.384 743.42 321.842 743.42Z" fill="#84B6F8"/>
<path fill-rule="evenodd" clip-rule="evenodd" d="M307.596 633.814C306.119 634.098 304.65 634.421 303.189 634.783C293.708 655.739 284.076 676.932 274.879 698.306C274.111 699.092 273.556 699.869 273.217 700.618L273.758 700.916C267.837 714.739 262.239 729.452 256.86 743.403L260.544 743.471L260.693 743.473C266.145 729.398 271.82 714.561 277.813 700.619C278.757 699.798 280.067 698.971 281.656 698.092C286.348 695.498 293.379 692.852 301.701 690.252C314.083 686.384 329.292 682.637 343.992 679.384C344.092 678.038 344.163 676.691 344.201 675.346C329.135 678.664 313.451 682.51 300.734 686.483C292.428 689.078 285.373 691.744 280.525 694.343C289.37 673.981 298.564 653.786 307.596 633.814ZM237.673 530.644C237.57 531.244 237.465 531.857 237.36 532.482C234.272 550.742 230.142 579.031 226.251 606.752C221.978 584.3 209.02 566.526 192.202 550.438C191.317 551.406 190.407 552.271 189.461 553C209.201 571.77 223.671 592.808 224.196 621.485C219.137 658.006 214.922 690.074 214.662 691.945C214.495 693.15 209.209 716.353 207.269 732.893C206.894 736.091 206.644 740.68 206.572 743.198L210.121 743.274C210.189 740.885 210.433 736.44 210.79 733.395C212.726 716.891 218.005 693.74 218.172 692.538C218.429 690.686 222.567 659.201 227.563 623.107H227.762C227.762 622.651 227.759 622.196 227.752 621.743C232.144 590.046 237.164 555.068 240.78 533.615C239.772 532.596 238.736 531.605 237.673 530.644ZM10.6411 511.668C9.84705 512.652 9.09556 513.669 8.38867 514.718C26.5548 528.52 43.5085 544.181 59.2209 561.426C45.3197 565.534 29.976 570.281 14.8153 573.508C15.9714 574.592 17.1414 575.661 18.3249 576.715C33.3695 573.336 48.4789 568.63 62.1092 564.629C90.6542 596.62 115.023 633.895 135.034 674.771C135.031 675.357 135.029 675.943 135.029 676.529H135.891C146.235 697.837 154.913 720.374 159.442 742.93L160.562 742.955L163.092 743.012C158.513 719.606 149.576 696.39 138.853 674.333L138.593 673.799C139.041 628.826 150.314 583.875 151.436 539.255C150.26 538.114 149.098 536.959 147.951 535.789C147.384 579.281 136.649 623.093 135.192 666.939C115.581 628.049 91.9946 592.527 64.5973 561.831L64.1566 559.98L63.1891 560.261C46.9852 542.287 29.4591 525.992 10.6411 511.668ZM38.6683 644.413C38.0998 645.571 37.5192 646.722 36.9266 647.868C48.7894 658.057 60.4188 672.328 69.9134 688.141C79.6672 704.385 88.1313 725.952 91.268 742.744L92.092 742.758L94.891 742.81C91.752 725.309 83.0494 702.925 72.8732 685.977C63.0456 669.61 50.9656 654.881 38.6683 644.413Z" fill="#CDE4FF"/>
<path fill-rule="evenodd" clip-rule="evenodd" d="M323.13 744.474V622.125L418.587 660.319V782.668L323.13 744.474Z" fill="white"/>
<path fill-rule="evenodd" clip-rule="evenodd" d="M418.589 782.669V660.32H884.411V782.669H418.589Z" fill="#649EF3"/>
<path fill-rule="evenodd" clip-rule="evenodd" d="M323.389 622.126L418.587 660.32H884.409L789.211 622.126H323.389Z" fill="#5090EF"/>
<path fill-rule="evenodd" clip-rule="evenodd" d="M841.573 782.669V660.32H853.049V782.669H841.573ZM821.325 782.669V660.32H832.8V782.669H821.325ZM617.067 721.495C617.067 742.459 632.494 759.48 651.496 759.48C670.499 759.48 685.926 742.459 685.926 721.495C685.926 700.53 670.499 683.509 651.496 683.509C632.494 683.509 617.067 700.53 617.067 721.495ZM470.193 782.669V660.32H481.668V782.669H470.193ZM449.944 782.669V660.32H461.42V782.669H449.944Z" fill="#C3D9FA"/>
<path fill-rule="evenodd" clip-rule="evenodd" d="M323.616 606.694V484.345L419.073 522.539V644.888L323.616 606.694Z" fill="white"/>
<path fill-rule="evenodd" clip-rule="evenodd" d="M419.073 644.89V522.541H825.493V644.89H419.073Z" fill="#84B6F8"/>
<path fill-rule="evenodd" clip-rule="evenodd" d="M419.073 522.538L323.13 484.344H729.549L825.492 522.538H419.073Z" fill="#9DC9FC"/>
<path fill-rule="evenodd" clip-rule="evenodd" d="M711.776 646.131V523.782H690.3V646.131H711.776ZM812.491 584.957C812.491 605.922 797.064 622.943 778.062 622.943C759.06 622.943 743.632 605.922 743.632 584.957C743.632 563.992 759.06 546.972 778.062 546.972C797.064 546.972 812.491 563.992 812.491 584.957Z" fill="#C3D9FA"/>
<path fill-rule="evenodd" clip-rule="evenodd" d="M876.496 397.452L971.766 334.833L1179.78 720.048L1084.51 782.668L876.496 397.452Z" fill="#9DC9FC"/>
<path fill-rule="evenodd" clip-rule="evenodd" d="M717.565 341.149L812.836 278.529L1051.25 720.049L955.978 782.668L717.565 341.149Z" fill="#84B6F8"/>
<path fill-rule="evenodd" clip-rule="evenodd" d="M934.06 742.07L1029.33 679.45L1035.2 690.327L939.933 752.947L934.06 742.07ZM923.696 722.878L1018.97 660.258L1024.84 671.135L929.57 733.754L923.696 722.878ZM866.79 497.967C850.466 508.697 845.108 532.03 854.833 550.041C864.559 568.052 885.708 573.963 902.033 563.233C918.358 552.503 923.716 529.169 913.99 511.159C904.265 493.148 883.115 487.237 866.79 497.967ZM743.983 390.065L839.254 327.446L845.127 338.322L749.856 400.942L743.983 390.065ZM733.62 370.873L828.89 308.253L834.763 319.13L739.493 381.75L733.62 370.873ZM1053.33 724.926L1148.6 662.307L1159.59 682.662L1064.32 745.281L1053.33 724.926ZM944.321 403.53C927.996 414.26 922.638 437.594 932.364 455.605C942.089 473.616 963.239 479.527 979.564 468.797C995.888 458.067 1001.25 434.733 991.52 416.722C981.795 398.712 960.645 392.801 944.321 403.53Z" fill="#C3D9FA"/>
<path fill-rule="evenodd" clip-rule="evenodd" d="M722.344 351.604L703.786 290.934L642.629 298.663L673.319 365.051L729.945 482.908C729.945 482.908 739.335 505.988 745.335 510.229C745.337 510.23 745.342 510.23 745.342 510.232C745.343 510.235 745.333 510.24 745.336 510.242C745.339 510.243 745.353 510.238 745.36 510.241C754.117 514.073 783.456 521.793 778.726 515.284C799.584 516.612 819.515 517.59 819.967 514.491C821.148 506.397 768.645 482.536 768.645 482.536L722.344 351.604Z" fill="#FFB3A4"/>
<path fill-rule="evenodd" clip-rule="evenodd" d="M703.648 290.823L643.009 299.882L710.907 314.138L703.648 290.823Z" fill="#DB5F6A"/>
<path fill-rule="evenodd" clip-rule="evenodd" d="M783.586 503.875C788.867 505.535 796.155 507.28 801.293 509.884C804.52 511.519 806.908 513.46 807.176 516.024C807.208 516.329 807.488 516.568 807.802 516.558C808.116 516.546 808.344 516.289 808.312 515.983C808.008 513.076 805.428 510.763 801.768 508.908C796.574 506.276 789.211 504.5 783.872 502.822C783.567 502.726 783.255 502.884 783.176 503.175C783.097 503.465 783.281 503.779 783.586 503.875ZM754.51 504.439C759.792 506.1 767.079 507.844 772.217 510.448C775.444 512.084 777.832 514.024 778.101 516.588C778.133 516.894 778.413 517.133 778.727 517.122C779.04 517.111 779.268 516.854 779.236 516.548C778.932 513.64 776.352 511.327 772.692 509.472C767.498 506.84 760.135 505.065 754.797 503.386C754.491 503.29 754.179 503.448 754.1 503.739C754.021 504.03 754.205 504.343 754.51 504.439ZM787.781 500.102C793.282 502.415 801.816 505.138 806.954 507.742C810.181 509.377 813.892 512.949 814.161 515.513C814.193 515.819 814.473 516.058 814.787 516.047C815.1 516.035 815.328 515.779 815.296 515.472C814.992 512.565 811.089 508.621 807.429 506.766C802.235 504.134 794.193 501.471 788.067 499.049C787.769 498.931 787.451 499.111 787.372 499.402C787.293 499.693 787.486 499.978 787.781 500.102Z" fill="black"/>
<path fill-rule="evenodd" clip-rule="evenodd" d="M491.255 200.053C491.255 200.053 405.146 202.768 387.572 213.043C368.518 224.182 375.015 258.193 389.721 265.882C405.786 274.282 483.964 263.443 483.964 263.443L491.255 200.053Z" fill="#FFB3A4"/>
<path fill-rule="evenodd" clip-rule="evenodd" d="M491.246 200.053L483.963 263.444L469.97 264.887L437.144 203.153L491.246 200.053Z" fill="#DB5F6A"/>
<path fill-rule="evenodd" clip-rule="evenodd" d="M499.703 706.17L534.827 666.178L574.994 715.338L539.869 755.33L499.703 706.17Z" fill="#FFB3A4"/>
<path fill-rule="evenodd" clip-rule="evenodd" d="M510.741 738.096C519.156 732.209 525.862 730.288 531.736 730.314C536.473 730.336 540.275 732.631 543.926 735.218C552.186 722.86 556.103 708.559 558.569 693.484L584.531 706.749C584.531 706.749 531.284 818.248 519.775 840.337C518.338 843.096 515.411 841.778 515.478 839.286C515.847 825.802 520.118 759.317 520.118 759.317L510.741 738.096Z" fill="#000054"/>
<path fill-rule="evenodd" clip-rule="evenodd" d="M499.703 706.17L534.827 666.178L545.438 679.165L499.703 706.17Z" fill="#DB5F6A"/>
<path fill-rule="evenodd" clip-rule="evenodd" d="M523.191 819.661C522.488 819.255 522.216 818.296 522.584 817.52L573.916 709.325C574.284 708.549 575.153 708.249 575.856 708.655C576.56 709.061 576.831 710.021 576.464 710.796L525.131 818.991C524.763 819.767 523.894 820.067 523.191 819.661ZM502.045 757.21C503.804 756.836 505.588 756.588 507.383 756.47C510.614 756.265 513.591 756.555 515.635 757.42C517.163 758.068 518.192 759.051 518.562 760.326C518.688 760.758 518.659 761.126 518.535 761.435C518.412 761.738 518.187 761.999 517.844 762.189C517.391 762.439 516.668 762.571 515.734 762.55C512.663 762.485 507.025 760.877 501.93 758.635C499.073 759.265 496.334 760.223 494.206 761.429C493.083 762.065 492.134 762.768 491.442 763.534C490.818 764.224 490.408 764.957 490.313 765.741C490.129 767.27 490.357 768.445 490.938 769.32C491.842 770.68 493.532 771.298 495.592 771.507C501.174 772.073 509.392 769.488 513.858 767.605C515.536 766.898 517.456 766.04 518.948 764.94C519.234 764.728 519.622 764.813 519.813 765.129C520.005 765.445 519.928 765.873 519.641 766.084C518.076 767.239 516.064 768.149 514.303 768.891C509.702 770.831 501.229 773.461 495.477 772.878C493.003 772.627 491.017 771.767 489.932 770.134C489.187 769.013 488.84 767.519 489.076 765.559C489.319 763.547 491.037 761.677 493.636 760.204C495.417 759.195 497.61 758.35 499.947 757.716C498.2 756.863 496.576 755.944 495.213 755.002C493.695 753.952 492.498 752.865 491.788 751.812C491.241 751.002 490.971 750.195 490.993 749.429C491.079 746.555 491.803 744.696 492.913 743.6C494.573 741.959 497.194 741.963 500.232 743.091C507.256 745.699 516.668 754.179 520.447 757.967C520.702 758.222 520.721 758.657 520.49 758.939C520.258 759.22 519.863 759.241 519.608 758.986C515.908 755.278 506.71 746.949 499.834 744.396C497.31 743.459 495.125 743.262 493.745 744.626C492.828 745.531 492.311 747.099 492.241 749.474C492.224 750.02 492.482 750.578 492.906 751.157C493.408 751.844 494.143 752.538 495.041 753.228C496.874 754.636 499.37 756.01 502.045 757.21ZM504.347 758.184C505.377 758.025 506.414 757.912 507.455 757.845C510.482 757.652 513.273 757.895 515.188 758.705C516.299 759.176 517.105 759.819 517.374 760.746C517.388 760.796 517.404 760.839 517.394 760.877C517.379 760.933 517.315 760.945 517.251 760.976C517.109 761.045 516.932 761.091 516.723 761.123C515.852 761.259 514.538 761.135 512.965 760.827C510.488 760.343 507.392 759.397 504.347 758.184ZM533.444 737.611C539.016 741.478 540.693 750.037 539.402 760.384C537.513 775.539 529.337 794.554 518.606 807.634C518.375 807.916 517.98 807.937 517.725 807.683C517.469 807.427 517.45 806.992 517.681 806.71C528.246 793.832 536.306 775.117 538.166 760.196C539.377 750.492 538.005 742.403 532.78 738.777C532.488 738.575 532.4 738.149 532.584 737.828C532.767 737.506 533.152 737.409 533.444 737.611Z" fill="#116CD2"/>
<path fill-rule="evenodd" clip-rule="evenodd" d="M366.874 534.935C364.192 529.826 362.468 524.107 361.873 518.117L361.239 511.724C358.968 488.845 374.194 471.515 394.109 464.659C423.482 454.546 473.175 444.106 521.596 436.102C532.833 434.245 535.059 411.577 535.059 411.577L670.876 414.931L674.588 457.804C675.219 465.094 671.852 510.801 632.405 516.503C592.56 522.264 528.982 534.183 474.705 544.006L548.931 658.199L490.261 723.181C490.261 723.181 418.8 616.206 372.39 546.884C369.907 543.175 368.072 539.133 366.874 534.935Z" fill="#000054"/>
<path fill-rule="evenodd" clip-rule="evenodd" d="M484.182 557.234L448.7 507.111C448.374 506.652 447.773 506.57 447.356 506.929C446.939 507.288 446.865 507.952 447.191 508.412L482.673 558.534C482.998 558.994 483.6 559.075 484.016 558.716C484.433 558.357 484.507 557.694 484.182 557.234ZM459.545 667.226L499.022 620.881C499.384 620.456 499.365 619.788 498.98 619.389C498.594 618.989 497.989 619.01 497.626 619.435L458.15 665.779C457.788 666.204 457.807 666.872 458.192 667.272C458.578 667.672 459.183 667.651 459.545 667.226ZM464.451 671.134L491.123 639.822C491.485 639.397 491.466 638.728 491.081 638.329C490.696 637.93 490.09 637.95 489.728 638.375L463.056 669.687C462.694 670.113 462.713 670.781 463.098 671.18C463.483 671.58 464.089 671.559 464.451 671.134Z" fill="#116CD2"/>
<path fill-rule="evenodd" clip-rule="evenodd" d="M373.987 495.935L559.541 403.761L672.023 414.039C683.919 470.393 668.799 493.518 648.747 510.578C622.94 525.83 595.007 529.964 566.939 533.399L398.598 594.174L343.077 626.801V626.8L224.794 696.572L185.982 616.43L373.987 495.935Z" fill="#010190"/>
<path fill-rule="evenodd" clip-rule="evenodd" d="M204.863 652.49L375.422 547.259C375.422 547.259 577.502 484.93 619.423 461.151C639.333 449.857 629.616 410.459 629.616 410.459C629.848 409.501 629.355 408.976 628.861 408.982C628.443 408.988 628.025 409.375 628.046 410.204C628.046 410.204 636.296 449.901 619.054 459.096C576.829 481.616 374.7 545.32 374.7 545.32L203.968 650.623C203.5 650.896 203.322 651.535 203.569 652.051C203.817 652.567 204.396 652.763 204.863 652.49Z" fill="#116CD2"/>
<path fill-rule="evenodd" clip-rule="evenodd" d="M637.957 467.631L589.346 433.449C588.9 433.136 588.308 433.281 588.024 433.773C587.74 434.265 587.871 434.917 588.317 435.231L636.927 469.413C637.373 469.726 637.966 469.581 638.25 469.089C638.534 468.597 638.403 467.945 637.957 467.631ZM230.004 593.77L258.53 649.035C258.791 649.542 259.376 649.719 259.835 649.43C260.295 649.141 260.455 648.496 260.194 647.989L231.668 592.724C231.406 592.217 230.821 592.04 230.362 592.329C229.902 592.618 229.742 593.263 230.004 593.77ZM225.174 597.791L244.447 635.13C244.709 635.637 245.294 635.814 245.753 635.525C246.213 635.237 246.373 634.592 246.111 634.085L226.838 596.746C226.576 596.239 225.992 596.062 225.532 596.35C225.073 596.639 224.912 597.284 225.174 597.791Z" fill="#116CD2"/>
<path fill-rule="evenodd" clip-rule="evenodd" d="M193.418 630.568L217.681 679.4L163.251 707.227L138.988 658.396L193.418 630.568Z" fill="#FFB3A4"/>
<path fill-rule="evenodd" clip-rule="evenodd" d="M182.069 625.296C181.849 636.286 179.586 643.509 176.311 648.89C173.67 653.23 169.832 655.451 165.858 657.371C170.607 671.804 179.229 683.323 189.238 693.94L164.847 710.438C164.847 710.438 110.206 599.764 99.9127 576.956C98.6273 574.107 101.244 572.149 103.087 573.592C113.057 581.399 160.861 622.152 160.861 622.152L182.069 625.296Z" fill="#000054"/>
<path fill-rule="evenodd" clip-rule="evenodd" d="M193.418 630.568L217.681 679.4L203.302 686.751L193.418 630.568Z" fill="#DB5F6A"/>
<path fill-rule="evenodd" clip-rule="evenodd" d="M113.623 591.545C114.318 591.124 115.193 591.405 115.575 592.173L168.783 699.259C169.165 700.027 168.909 700.992 168.214 701.413C167.518 701.834 166.643 701.552 166.262 700.784L113.053 593.698C112.672 592.931 112.927 591.966 113.623 591.545ZM172.462 606.718C171.772 608.536 170.971 610.311 170.063 612.031C168.428 615.113 166.561 617.687 164.775 619.085C163.44 620.13 162.128 620.529 160.961 620.163C160.566 620.039 160.303 619.809 160.14 619.524C159.979 619.243 159.906 618.892 159.953 618.472C160.015 617.918 160.317 617.18 160.849 616.333C162.6 613.548 166.936 609.261 171.451 605.823C172.558 602.85 173.353 599.803 173.621 597.18C173.763 595.796 173.759 594.535 173.564 593.475C173.388 592.52 173.063 591.737 172.524 591.216C171.472 590.2 170.459 589.759 169.477 589.808C167.95 589.884 166.547 591.095 165.248 592.871C161.729 597.684 159.127 606.665 158.074 611.81C157.679 613.743 157.262 615.982 157.266 617.962C157.267 618.342 156.988 618.651 156.644 618.652C156.299 618.653 156.019 618.345 156.018 617.965C156.014 615.887 156.442 613.536 156.857 611.507C157.942 606.205 160.651 596.966 164.278 592.006C165.838 589.872 167.586 588.525 169.42 588.432C170.678 588.369 171.998 588.878 173.346 590.181C174.73 591.518 175.189 594.132 174.861 597.335C174.636 599.53 174.059 602.013 173.243 604.51C174.854 603.379 176.447 602.395 177.913 601.666C179.546 600.853 181.03 600.356 182.218 600.286C183.132 600.233 183.89 600.432 184.456 600.877C186.577 602.548 187.579 604.243 187.791 605.87C188.11 608.304 186.655 610.708 184.121 612.874C178.262 617.881 166.649 621.828 161.697 623.202C161.363 623.295 161.024 623.071 160.94 622.702C160.856 622.334 161.059 621.96 161.393 621.867C166.241 620.522 177.62 616.688 183.357 611.785C185.461 609.987 186.821 608.088 186.556 606.066C186.381 604.722 185.484 603.378 183.731 601.998C183.328 601.68 182.765 601.608 182.093 601.677C181.296 601.757 180.365 602.048 179.347 602.491C177.27 603.395 174.85 604.926 172.462 606.718ZM170.453 608.293C170.002 609.325 169.513 610.34 168.987 611.336C167.455 614.222 165.726 616.652 164.053 617.962C163.082 618.721 162.151 619.105 161.303 618.839C161.257 618.824 161.216 618.816 161.193 618.785C161.158 618.74 161.186 618.675 161.197 618.599C161.223 618.431 161.287 618.242 161.378 618.033C161.758 617.158 162.58 616.019 163.684 614.744C165.421 612.737 167.851 610.417 170.453 608.293ZM169.858 646.414C163.854 649.39 156.466 646.189 149.373 639.272C138.984 629.141 129.164 611.097 125.238 593.995C125.153 593.626 125.356 593.252 125.69 593.158C126.024 593.065 126.363 593.288 126.448 593.657C130.313 610.495 139.971 628.265 150.199 638.24C156.851 644.728 163.716 647.949 169.346 645.158C169.661 645.002 170.03 645.157 170.171 645.504C170.312 645.851 170.172 646.258 169.858 646.414Z" fill="#116CD2"/>
<path fill-rule="evenodd" clip-rule="evenodd" d="M520.054 283.951L532.598 417.729C576.945 425.954 627.307 426.48 672.84 417.729L651.197 297.927L713.136 296.19C713.136 296.19 694.513 228.918 657.578 204.019C651.301 199.788 619.701 189.311 606.706 188.648C589.074 187.748 570.598 187.914 553.797 189.178C544.335 189.89 482.135 187.885 475.454 198.624C468.884 209.182 474.081 253.01 479.624 267.221C483.401 276.907 520.054 283.951 520.054 283.951Z" fill="#FBA800"/>
<path fill-rule="evenodd" clip-rule="evenodd" d="M653.276 206.158C641.663 207.345 636.561 221.757 638.824 240.493C638.894 241.07 639.269 241.507 639.661 241.468C640.053 241.428 640.314 240.928 640.245 240.351C638.139 222.919 642.726 209.354 653.53 208.249C653.922 208.209 654.183 207.709 654.113 207.131C654.043 206.554 653.668 206.118 653.276 206.158ZM651.559 297.521L643.445 255.096C643.336 254.525 642.828 254.16 642.311 254.28C641.793 254.4 641.463 254.961 641.572 255.532L649.685 297.957C649.794 298.528 650.302 298.893 650.819 298.772C651.337 298.652 651.668 298.091 651.559 297.521Z" fill="#FBD474"/>
<path fill-rule="evenodd" clip-rule="evenodd" d="M647.476 282.55L705.114 281.577C705.643 281.568 706.065 281.088 706.057 280.505C706.049 279.922 705.614 279.456 705.085 279.465L647.447 280.438C646.919 280.447 646.497 280.926 646.505 281.51C646.513 282.093 646.948 282.559 647.476 282.55ZM649.791 289.224L688.733 288.567C689.261 288.558 689.684 288.078 689.675 287.495C689.667 286.911 689.232 286.445 688.704 286.454L649.761 287.112C649.233 287.12 648.81 287.6 648.819 288.184C648.827 288.767 649.262 289.233 649.791 289.224ZM577.665 235.249C579.991 235.249 581.879 237.332 581.879 239.897C581.879 242.463 579.991 244.546 577.665 244.546C575.34 244.546 573.452 242.463 573.452 239.897C573.452 237.332 575.34 235.249 577.665 235.249ZM577.665 237.101C579.064 237.101 580.199 238.354 580.199 239.897C580.199 241.44 579.064 242.693 577.665 242.693C576.267 242.693 575.131 241.44 575.131 239.897C575.131 238.354 576.267 237.101 577.665 237.101ZM577.665 255.421C579.991 255.421 581.879 257.504 581.879 260.069C581.879 262.635 579.991 264.718 577.665 264.718C575.34 264.718 573.452 262.635 573.452 260.069C573.452 257.504 575.34 255.421 577.665 255.421ZM577.665 257.273C579.064 257.273 580.199 258.526 580.199 260.069C580.199 261.613 579.064 262.865 577.665 262.865C576.267 262.865 575.131 261.613 575.131 260.069C575.131 258.526 576.267 257.273 577.665 257.273Z" fill="#FBD474"/>
<path fill-rule="evenodd" clip-rule="evenodd" d="M570.361 269.776L575.176 274.999C575.523 275.439 576.127 275.486 576.527 275.104C576.926 274.721 576.969 274.054 576.622 273.613L571.734 268.312L571.139 225.457C571.132 224.874 570.696 224.409 570.168 224.418C569.639 224.427 569.217 224.907 569.225 225.49L569.826 268.844C569.832 269.254 570.048 269.606 570.361 269.776Z" fill="#FBD474"/>
<path fill-rule="evenodd" clip-rule="evenodd" d="M436.09 235.789C435.921 236.073 435.575 236.152 435.317 235.965C435.06 235.779 434.988 235.397 435.158 235.113L464.747 185.5C464.917 185.216 465.263 185.137 465.521 185.324C465.778 185.511 465.849 185.893 465.68 186.177L436.09 235.789Z" fill="black"/>
<path fill-rule="evenodd" clip-rule="evenodd" d="M590.336 126.891C591.226 118.427 591.184 96.3684 572.485 88.4959C560.292 83.3627 546.345 87.1235 541.263 95.9249C535.64 105.664 530.454 135.047 528.627 152.024C527.2 165.286 537.939 172.979 547.602 169.823C547.36 181.102 546.853 194.409 546.884 203.691C547.047 251.755 600.017 233.729 597.712 202.753C597.338 197.719 589.851 155.327 589.851 155.327L591.715 148.603C601.279 149.284 606.021 137.04 603.6 131.782C601.592 127.421 596.715 124.546 590.336 126.891Z" fill="#FFB3A4"/>
<path fill-rule="evenodd" clip-rule="evenodd" d="M577.91 107.808C576.889 118.178 580.709 116.714 582.994 122.492C584.658 126.701 584.117 132.162 586.245 132.11C587.834 129.272 591.392 123.968 599.901 127.441C602.034 123.716 603.534 118.422 604.162 113.031L577.91 107.808Z" fill="#DD6353"/>
<path fill-rule="evenodd" clip-rule="evenodd" d="M606.163 119.572C612.726 110.47 608.37 96.2251 597.598 90.4616C596.333 89.7848 599.147 88.3089 597.764 87.8386C593.729 86.4671 588.682 87.1011 582.749 90.8958C581.349 79.6299 574.88 77.0957 574.88 77.0957L573.351 80.309C566.281 71.9945 532.182 79.6689 532.292 105.443C532.246 106.46 535.544 102.547 538.43 103.301C540.629 103.876 537.974 112.425 540.93 111.827C546.583 110.682 552.818 105.304 557.35 105.295C562.534 105.284 557.502 112.792 562.406 112.021C570.273 110.783 576.463 108.621 576.747 105.706C576.747 105.706 575.929 117.371 581.953 117.225C582.363 116.493 583.471 110.769 585.438 110.802C587.575 110.839 590.673 116.686 593.567 117.185C595.497 117.518 597.756 112.717 599.605 113.085C602.336 113.628 604.51 119.319 606.163 119.572Z" fill="#700D00"/>
<path fill-rule="evenodd" clip-rule="evenodd" d="M559.209 165.883L547.585 169.824L547.236 185.94L559.209 165.883Z" fill="#DB5F6A"/>
<path fill-rule="evenodd" clip-rule="evenodd" d="M544.206 138.785L549.382 125.087C549.523 124.717 549.36 124.293 549.014 124.143C548.674 123.997 548.289 124.177 548.152 124.54L542.435 139.668C542.416 139.718 542.408 139.771 542.412 139.825C542.416 139.878 542.431 139.929 542.457 139.976C542.481 140.02 542.516 140.057 542.558 140.085C542.6 140.112 542.648 140.129 542.698 140.133L550.496 140.639C550.864 140.663 551.177 140.357 551.199 139.963C551.222 139.568 550.945 139.222 550.575 139.198L544.206 138.785Z" fill="black"/>
<path fill-rule="evenodd" clip-rule="evenodd" d="M557.239 120.807C559.381 120.269 560.998 120.483 562.222 121.177C563.429 121.861 564.235 122.988 564.813 124.168C565.124 124.801 565.855 125.045 566.447 124.713C567.039 124.381 567.267 123.599 566.957 122.966C566.162 121.344 565.015 119.831 563.356 118.89C561.716 117.96 559.557 117.565 556.685 118.288C556.034 118.451 555.63 119.148 555.783 119.844C555.936 120.54 556.588 120.971 557.239 120.807Z" fill="#DD6353"/>
<path fill-rule="evenodd" clip-rule="evenodd" d="M540.41 147.624C546.832 154.128 555.501 150.706 560.16 147.918C560.486 147.722 560.6 147.279 560.417 146.93C560.238 146.589 559.836 146.463 559.517 146.654C555.224 149.224 547.235 152.562 541.317 146.569C541.256 146.506 541.182 146.456 541.101 146.423C541.02 146.39 540.932 146.374 540.844 146.376C540.756 146.379 540.67 146.4 540.591 146.438C540.511 146.476 540.441 146.53 540.384 146.597C540.259 146.74 540.193 146.925 540.198 147.115C540.202 147.305 540.278 147.487 540.41 147.624Z" fill="black"/>
<path fill-rule="evenodd" clip-rule="evenodd" d="M544.803 115.865C539.737 113.34 536.71 116.555 535.447 117.878C534.969 118.378 534.961 119.197 535.429 119.708C535.897 120.219 536.663 120.227 537.14 119.727C538.039 118.786 540.176 116.415 543.78 118.212C544.386 118.514 545.106 118.233 545.388 117.585C545.671 116.937 545.408 116.167 544.803 115.865Z" fill="#DD6353"/>
<path d="M538.524 129.647C539.722 129.647 540.694 128.15 540.694 126.303C540.694 124.456 539.722 122.959 538.524 122.959C537.325 122.959 536.354 124.456 536.354 126.303C536.354 128.15 537.325 129.647 538.524 129.647Z" fill="black"/>
<path fill-rule="evenodd" clip-rule="evenodd" d="M593.868 137.477C594.763 137.464 595.348 137.581 595.768 137.817C596.17 138.042 596.402 138.376 596.641 138.743C596.849 139.063 597.261 139.145 597.561 138.922C597.868 138.692 597.941 138.239 597.727 137.911C597.365 137.354 596.988 136.876 596.379 136.535C596.074 136.364 595.706 136.225 595.242 136.138C595.921 135.803 596.76 135.715 597.771 135.872C598.135 135.929 598.47 135.654 598.523 135.264C598.576 134.87 598.327 134.501 597.959 134.444C596.282 134.183 594.976 134.501 593.981 135.267C592.995 136.027 592.303 137.246 591.898 138.881C591.803 139.266 592.012 139.664 592.373 139.766C592.728 139.867 593.089 139.635 593.183 139.255C593.352 138.571 593.576 137.974 593.868 137.477ZM556.599 128.482C557.418 128.882 557.905 129.257 558.198 129.664C558.478 130.055 558.563 130.465 558.641 130.908C558.71 131.295 559.053 131.558 559.41 131.493C559.776 131.427 560.014 131.049 559.943 130.651C559.824 129.978 559.662 129.371 559.237 128.78C559.025 128.485 558.742 128.19 558.354 127.897C559.098 127.905 559.893 128.21 560.753 128.818C561.063 129.037 561.471 128.94 561.667 128.61C561.863 128.278 561.776 127.827 561.464 127.607C560.037 126.598 558.73 126.286 557.537 126.526C556.353 126.763 555.263 127.553 554.278 128.853C554.046 129.16 554.086 129.618 554.375 129.876C554.66 130.131 555.076 130.086 555.304 129.784C555.716 129.24 556.146 128.8 556.599 128.482Z" fill="black"/>
<path fill-rule="evenodd" clip-rule="evenodd" d="M458.308 86.0342L532.388 120.512C537.397 122.514 532.425 137.688 526.739 135.288L452.659 100.811L458.308 86.0342Z" fill="#649EF3"/>
<path fill-rule="evenodd" clip-rule="evenodd" d="M422.431 47.4614L464.609 77.1385L451.582 111.209L402.581 99.3796L422.431 47.4614Z" fill="#84B6F8"/>
<path fill-rule="evenodd" clip-rule="evenodd" d="M337 0.257812L428.722 42.9457L404.039 107.502L312.317 64.8139L337 0.257812Z" fill="#9DC9FC"/>
<path fill-rule="evenodd" clip-rule="evenodd" d="M337.055 0.276667C334.807 -0.769354 327.451 12.8468 320.638 30.6649C313.825 48.4826 310.12 63.798 312.368 64.844C314.616 65.8905 321.972 52.2744 328.785 34.4563C335.597 16.6386 339.303 1.32316 337.055 0.276667Z" fill="#84B6F8"/>
<path fill-rule="evenodd" clip-rule="evenodd" d="M387.556 264.018C381.302 259.172 377.064 251.768 375.786 243.455C374.508 235.142 376.297 226.61 380.753 219.76C411.372 173.374 460.761 123.056 460.761 123.056C460.761 123.056 461.72 103.53 476.713 91.5943C482.729 86.8049 488.11 85.3911 490.112 91.099C495.671 87.746 499.539 93.5471 498.524 96.0803C502.509 94.3994 506.684 97.171 505.464 100.93C510.163 97.7387 519.023 106.295 508.357 116.618C513.946 119.337 520.074 131.7 485.717 152.049C485.717 152.049 447.445 217.932 422.825 254.816C413.562 268.694 400.341 273.924 387.556 264.019L387.556 264.018Z" fill="#FFB3A4"/>
<path fill-rule="evenodd" clip-rule="evenodd" d="M489.059 125.376C487.571 125.911 485.916 126.055 484.434 125.802C482.523 125.476 480.914 124.489 480.24 122.928C479.629 121.515 479.75 119.567 481.235 117.126C479.51 118.313 478.016 118.825 476.835 118.835C475.74 118.845 474.888 118.437 474.312 117.742C473.744 117.058 473.436 116.077 473.47 114.882C473.502 113.766 473.836 112.445 474.529 111.016C473.357 111.763 472.299 112.195 471.403 112.342C470.382 112.51 469.548 112.317 468.945 111.839C468.053 111.132 467.61 109.758 467.93 107.757C468.354 105.114 470.13 101.259 473.808 96.4632C473.988 96.2285 474.306 96.1993 474.518 96.3978C474.731 96.5963 474.758 96.9471 474.577 97.1818C471.063 101.765 469.328 105.425 468.923 107.951C468.692 109.397 468.888 110.424 469.533 110.935C469.954 111.268 470.542 111.359 471.254 111.242C472.492 111.038 474.057 110.208 475.82 108.715C475.89 108.656 475.961 108.594 476.032 108.531C478.237 105.403 481.208 102.063 485.334 96.5375L486.116 97.2397C483.68 100.584 480.125 106.298 476.755 109.318C476.676 109.431 476.598 109.544 476.52 109.656C475.171 111.627 474.52 113.459 474.479 114.917C474.454 115.779 474.646 116.497 475.056 116.991C475.569 117.61 476.407 117.85 477.485 117.659C478.709 117.441 480.212 116.678 481.932 115.245C483.256 114.143 484.713 112.647 486.177 110.988C487.352 109.612 488.508 108.219 489.642 106.81C492.159 103.613 494.375 100.486 495.554 98.7786L496.362 99.4451C494.306 102.535 492.184 105.328 490.223 107.761C489.163 109.099 488.055 110.444 486.95 111.7C485.168 113.793 483.716 115.447 482.858 116.593C480.951 119.135 480.553 121.069 481.15 122.45C481.696 123.714 483.04 124.439 484.588 124.702C486.427 125.016 488.575 124.668 490.185 123.628C490.61 123.114 491.11 122.665 491.666 122.296L492.304 123.14C491.888 123.66 491.393 124.114 490.838 124.483C489.821 125.741 489.228 127.403 489.12 128.934C489.025 130.265 489.289 131.505 490.022 132.242C490.619 132.843 491.519 133.074 492.737 132.787C494.107 132.463 495.834 131.503 497.962 129.684C498.182 129.496 498.498 129.54 498.669 129.783C498.84 130.026 498.8 130.375 498.58 130.563C496.291 132.52 494.421 133.526 492.949 133.874C491.325 134.258 490.138 133.866 489.342 133.065C488.403 132.119 487.993 130.554 488.114 128.847C488.196 127.695 488.518 126.482 489.059 125.376ZM501.77 131.501C496.323 127.508 493.149 123.828 491.644 120.715C490.586 118.528 488.394 112.152 492.332 111.329C496.141 110.532 502.768 112.434 507.825 116.484C508.051 116.664 508.1 117.012 507.937 117.261C507.773 117.51 507.458 117.565 507.233 117.385C502.462 113.564 496.122 111.5 492.56 112.412C490.326 112.985 491.618 118.298 492.533 120.191C493.986 123.196 497.072 126.721 502.328 130.575C502.56 130.744 502.623 131.09 502.469 131.345C502.315 131.602 502.002 131.671 501.77 131.501Z" fill="black"/>
</g>
<defs>
<clipPath id="clip0_181_168">
<rect width="1180" height="820" fill="white"/>
</clipPath>
</defs>
</svg>
