<svg width="900" height="674" viewBox="0 0 900 674" fill="none" xmlns="http://www.w3.org/2000/svg">
<g clip-path="url(#clip0_179_140)">
<path fill-rule="evenodd" clip-rule="evenodd" d="M58.4479 674.341C23.1755 647.639 0.367188 605.308 0.367188 557.691C0.367188 476.986 65.8899 411.463 146.595 411.463C183.002 411.463 216.319 424.796 241.918 446.836C264.405 286.271 402.454 162.543 569.173 162.543C751.559 162.543 899.633 310.618 899.633 493.004C899.633 559.939 879.689 622.253 845.412 674.341H58.4463H58.4479Z" fill="#EBF3FF"/>
<path fill-rule="evenodd" clip-rule="evenodd" d="M871.741 334.881C871.741 328.9 866.886 324.045 860.905 324.045H723.935C717.955 324.045 713.1 328.9 713.1 334.881V421.568C713.1 427.549 717.955 432.404 723.935 432.404H819.312C820.472 432.404 822.155 433.997 822.155 433.997L831.552 445.816C831.803 446.132 832.121 446.387 832.484 446.562C832.847 446.737 833.245 446.829 833.648 446.829C834.051 446.829 834.449 446.739 834.813 446.564C835.176 446.39 835.495 446.135 835.747 445.82L845.206 433.97C845.206 433.97 846.884 432.405 848.033 432.405L860.905 432.404C866.886 432.404 871.741 427.549 871.741 421.568V334.881Z" fill="#9DC9FC"/>
<path d="M746.559 348.522V408.14H838.277V348.522H746.559ZM800.214 384.981C798.15 387.045 795.399 388.191 792.418 388.191C789.437 388.191 786.686 387.045 784.622 384.981L752.749 353.108H831.857L800.214 384.981ZM774.762 378.331L751.144 401.949V354.714L774.762 378.331ZM776.367 379.936L783.017 386.586C785.539 389.108 788.978 390.484 792.418 390.484C796.087 390.484 799.297 389.108 801.819 386.586L808.469 379.936L832.087 403.554H752.749L776.367 379.936ZM810.074 378.331L833.691 354.714V402.178L810.074 378.331Z" fill="white"/>
<path fill-rule="evenodd" clip-rule="evenodd" d="M584.496 131.911C584.496 131.425 584.689 130.96 585.032 130.617C585.376 130.273 585.841 130.08 586.327 130.08H598.867C599.353 130.08 599.818 130.273 600.161 130.617C600.505 130.96 600.698 131.425 600.698 131.911V135.572C600.698 136.058 600.505 136.523 600.161 136.866C599.818 137.21 599.353 137.403 598.867 137.403H586.327C585.841 137.402 585.376 137.21 585.032 136.866C584.689 136.523 584.496 136.058 584.496 135.572V131.911ZM542.334 46.1445C543.532 65.613 555.76 88.6096 572.026 96.0354C571.994 96.3634 571.976 96.6967 571.976 97.0341V116.967C571.976 122.468 576.442 126.934 581.943 126.934H603.251C608.752 126.934 613.217 122.468 613.217 116.967V97.0341C613.217 96.6967 613.2 96.3634 613.168 96.0354C628.694 88.9474 639.34 67.6738 641.201 48.8224L633.97 54.0071C633.598 54.2736 633.171 54.4535 632.72 54.5336C632.269 54.6137 631.806 54.5919 631.365 54.4699C630.924 54.3479 630.516 54.1286 630.17 53.8283C629.825 53.528 629.551 53.1542 629.369 52.7343L624.264 40.9647L610.288 46.881C609.656 47.1488 608.951 47.1964 608.288 47.0162C607.626 46.8361 607.042 46.4386 606.632 45.8875L598.492 34.9507L582.121 52.1809C581.793 52.5264 581.388 52.7907 580.94 52.9527C580.492 53.1148 580.012 53.1702 579.539 53.1146C579.066 53.059 578.612 52.8938 578.214 52.6322C577.815 52.3706 577.483 52.0198 577.244 51.6076L565.458 31.3003L542.334 46.1445ZM542.43 38.793L564.844 24.4048C565.193 24.1808 565.583 24.0298 565.992 23.961C566.4 23.8921 566.819 23.9068 567.221 24.0042C567.624 24.1016 568.003 24.2796 568.335 24.5275C568.667 24.7754 568.946 25.0881 569.154 25.4466L580.494 44.9866L596.554 28.0844C596.862 27.7604 597.237 27.5076 597.653 27.3437C598.069 27.1798 598.516 27.1088 598.962 27.1357C599.408 27.1625 599.843 27.2865 600.236 27.4991C600.63 27.7116 600.972 28.0076 601.239 28.3661L610.115 40.2928L624.673 34.1301C625.418 33.8149 626.257 33.8066 627.008 34.1071C627.759 34.4076 628.361 34.9925 628.683 35.7346L633.485 46.8066L641.456 41.0922C640.449 14.9767 619.325 1.23682 592.597 1.23682C566.664 1.23682 544.694 14.1724 542.43 38.793Z" fill="#9DC9FC"/>
<path fill-rule="evenodd" clip-rule="evenodd" d="M584.496 131.911C584.496 131.425 584.689 130.96 585.032 130.617C585.375 130.273 585.841 130.08 586.326 130.08H598.867C599.352 130.08 599.818 130.273 600.161 130.617C600.504 130.96 600.697 131.425 600.698 131.911V135.572C600.697 136.058 600.505 136.523 600.161 136.866C599.818 137.21 599.352 137.403 598.867 137.403H586.326C585.841 137.403 585.375 137.21 585.032 136.866C584.689 136.523 584.496 136.058 584.496 135.572V131.911ZM614.529 95.3887C607.468 96.3456 600.128 96.8503 592.597 96.8503C585.065 96.8503 577.725 96.3456 570.664 95.3887C571.115 95.6112 571.568 95.8268 572.026 96.0354C571.993 96.3635 571.976 96.6968 571.976 97.0342V116.967C571.976 122.468 576.442 126.934 581.943 126.934H603.25C608.751 126.934 613.217 122.468 613.217 116.967V97.0342C613.217 96.6968 613.2 96.3635 613.167 96.0354C613.625 95.8269 614.079 95.6113 614.529 95.3887Z" fill="#649EF3"/>
<path fill-rule="evenodd" clip-rule="evenodd" d="M497.969 483.229L618.268 580.428C664.7 621.196 713.094 568.995 679.285 534.327L569.615 427.705L497.969 483.229Z" fill="#DB5F6A"/>
<path fill-rule="evenodd" clip-rule="evenodd" d="M497.977 483.237L569.614 427.703L607.216 464.26L573.838 544.527L497.977 483.237Z" fill="#DB5F6A"/>
<path fill-rule="evenodd" clip-rule="evenodd" d="M530.002 507.727L515.043 658.395H295.558L311.359 484.35H244.947V448.58C244.947 393.866 279.11 349.354 328.299 340.938C382.178 331.72 421.514 331.71 472.339 339.899C522.069 347.913 610.949 455.461 610.949 455.461L530.002 507.727Z" fill="#FBA800"/>
<path fill-rule="evenodd" clip-rule="evenodd" d="M301.644 357.519C326.085 355.838 341.692 374.469 343.57 401.244C343.584 401.441 343.559 401.638 343.497 401.824C343.434 402.011 343.336 402.183 343.207 402.332C343.078 402.48 342.92 402.602 342.744 402.69C342.568 402.778 342.377 402.83 342.18 402.844C341.984 402.858 341.787 402.833 341.6 402.77C341.414 402.708 341.241 402.609 341.093 402.48C340.944 402.351 340.823 402.194 340.735 402.018C340.647 401.842 340.595 401.65 340.581 401.454C338.833 376.542 324.59 358.945 301.849 360.509C301.653 360.523 301.456 360.497 301.269 360.435C301.083 360.372 300.91 360.273 300.762 360.144C300.614 360.015 300.492 359.857 300.405 359.681C300.317 359.505 300.265 359.313 300.252 359.117C300.238 358.921 300.263 358.724 300.326 358.537C300.389 358.351 300.488 358.178 300.617 358.03C300.746 357.881 300.903 357.76 301.079 357.672C301.256 357.585 301.447 357.533 301.644 357.519ZM333.827 482.539L334.768 421.039C334.774 420.642 334.938 420.263 335.223 419.987C335.508 419.71 335.892 419.558 336.289 419.564C336.686 419.57 337.065 419.734 337.342 420.019C337.618 420.304 337.77 420.688 337.764 421.085L336.824 482.584C336.818 482.982 336.654 483.36 336.369 483.637C336.084 483.914 335.7 484.066 335.303 484.06C334.905 484.054 334.527 483.89 334.25 483.605C333.973 483.32 333.821 482.936 333.827 482.539Z" fill="#FBD474"/>
<path fill-rule="evenodd" clip-rule="evenodd" d="M336.629 461.127L246.423 459.747C246.226 459.744 246.032 459.702 245.851 459.624C245.67 459.546 245.507 459.433 245.37 459.292C245.233 459.151 245.125 458.984 245.053 458.801C244.98 458.618 244.944 458.423 244.947 458.226C244.95 458.029 244.992 457.835 245.07 457.654C245.148 457.474 245.261 457.31 245.402 457.173C245.544 457.036 245.711 456.928 245.893 456.856C246.076 456.783 246.272 456.748 246.469 456.751L336.674 458.13C336.871 458.133 337.065 458.175 337.246 458.253C337.427 458.331 337.59 458.444 337.727 458.585C337.864 458.726 337.972 458.893 338.044 459.076C338.117 459.259 338.153 459.455 338.15 459.651C338.147 459.848 338.105 460.042 338.027 460.223C337.949 460.403 337.836 460.567 337.695 460.704C337.553 460.841 337.386 460.949 337.204 461.021C337.021 461.094 336.825 461.13 336.629 461.127ZM596.176 461.127L528.094 459.747C527.697 459.741 527.319 459.577 527.042 459.292C526.765 459.007 526.613 458.623 526.619 458.226C526.625 457.829 526.789 457.45 527.074 457.173C527.36 456.897 527.743 456.745 528.14 456.751L596.222 458.13C596.615 458.143 596.987 458.31 597.258 458.594C597.529 458.879 597.677 459.258 597.671 459.651C597.665 460.044 597.505 460.419 597.226 460.695C596.946 460.971 596.569 461.126 596.176 461.127ZM335.268 470.497L274.322 469.565C273.924 469.559 273.546 469.395 273.269 469.11C272.992 468.825 272.84 468.441 272.847 468.044C272.853 467.646 273.016 467.268 273.302 466.991C273.587 466.714 273.97 466.562 274.368 466.569L335.314 467.501C335.712 467.507 336.09 467.671 336.367 467.956C336.644 468.241 336.796 468.624 336.79 469.022C336.783 469.419 336.62 469.798 336.334 470.074C336.049 470.351 335.666 470.503 335.268 470.497ZM589.124 470.497L528.177 469.565C527.78 469.559 527.401 469.395 527.125 469.11C526.848 468.825 526.696 468.441 526.702 468.044C526.708 467.646 526.872 467.268 527.157 466.991C527.442 466.714 527.826 466.562 528.223 466.569L589.17 467.501C589.367 467.504 589.561 467.545 589.741 467.624C589.922 467.702 590.086 467.815 590.223 467.956C590.36 468.097 590.467 468.264 590.54 468.447C590.612 468.63 590.648 468.825 590.645 469.022C590.642 469.219 590.6 469.413 590.522 469.593C590.444 469.774 590.331 469.937 590.19 470.074C590.049 470.211 589.882 470.319 589.699 470.392C589.516 470.464 589.321 470.5 589.124 470.497Z" fill="#FBD474"/>
<path fill-rule="evenodd" clip-rule="evenodd" d="M525.557 482.218L526.497 420.719C526.5 420.522 526.542 420.328 526.62 420.147C526.698 419.966 526.811 419.803 526.952 419.666C527.094 419.529 527.261 419.421 527.443 419.349C527.626 419.276 527.822 419.24 528.018 419.243C528.215 419.246 528.409 419.288 528.59 419.366C528.771 419.444 528.934 419.557 529.071 419.698C529.208 419.84 529.316 420.007 529.388 420.189C529.461 420.372 529.497 420.568 529.494 420.764L528.553 482.264C528.547 482.661 528.383 483.04 528.098 483.317C527.813 483.593 527.429 483.745 527.032 483.739C526.635 483.733 526.256 483.57 525.979 483.284C525.703 482.999 525.551 482.616 525.557 482.218ZM426.44 394.49C422.801 394.49 419.846 397.445 419.846 401.084C419.846 404.723 422.801 407.678 426.44 407.678C430.079 407.678 433.034 404.723 433.034 401.084C433.034 397.445 430.079 394.49 426.44 394.49ZM426.44 397.118C424.251 397.118 422.474 398.895 422.474 401.084C422.474 403.273 424.251 405.05 426.44 405.05C428.629 405.05 430.406 403.273 430.406 401.084C430.406 398.895 428.629 397.118 426.44 397.118ZM426.44 423.101C422.801 423.101 419.846 426.055 419.846 429.695C419.846 433.334 422.801 436.289 426.44 436.289C430.079 436.289 433.034 433.334 433.034 429.695C433.034 426.055 430.079 423.101 426.44 423.101ZM426.44 425.729C424.251 425.729 422.474 427.506 422.474 429.695C422.474 431.884 424.251 433.661 426.44 433.661C428.629 433.661 430.406 431.884 430.406 429.695C430.406 427.506 428.629 425.729 426.44 425.729Z" fill="#FBD474"/>
<path fill-rule="evenodd" clip-rule="evenodd" d="M437.869 443.461L430.332 450.87C430.071 451.171 429.702 451.355 429.306 451.383C428.909 451.411 428.518 451.28 428.218 451.02C427.918 450.759 427.734 450.39 427.706 449.994C427.678 449.597 427.809 449.206 428.069 448.906L435.719 441.385L436.649 380.595C436.655 380.197 436.819 379.819 437.104 379.542C437.389 379.265 437.773 379.113 438.17 379.119C438.567 379.125 438.946 379.289 439.223 379.574C439.499 379.859 439.651 380.243 439.645 380.64L438.705 442.14C438.701 442.416 438.621 442.685 438.473 442.918C438.325 443.152 438.116 443.34 437.869 443.461Z" fill="#FBD474"/>
<path fill-rule="evenodd" clip-rule="evenodd" d="M326.178 614.245C326.049 689.296 242.276 681.588 242.769 617.78C243.198 562.182 248.293 484.107 248.293 484.107L332.61 483.046L326.178 614.245Z" fill="#FFB3A4"/>
<path fill-rule="evenodd" clip-rule="evenodd" d="M247.569 484.167L333.179 482.505L245.927 523.893L247.569 484.167Z" fill="#DB5F6A"/>
<path fill-rule="evenodd" clip-rule="evenodd" d="M392.742 261.667C388.915 250.202 382.563 219.562 408.915 202.631C426.099 191.589 448.557 192.335 458.902 202.923C470.349 214.64 486.84 253.77 494.577 276.754C500.621 294.709 486.41 308.836 470.69 307.557C469.921 326.48 468.676 353.894 466.921 368.892C461.87 412.071 396.015 396.554 390.534 352.808C389.643 345.698 401.757 300.993 401.757 300.993L396.946 292.254C382.493 296.27 371.669 280.792 373.847 272.715C375.654 266.016 382.288 260.459 392.742 261.667Z" fill="#FFB3A4"/>
<path fill-rule="evenodd" clip-rule="evenodd" d="M381.455 263.839C364.888 246.751 369.593 219.702 384.247 219.619C380.072 211.905 391.325 199.748 399.36 202.717C400.611 189.598 426.952 179.604 437.867 187.445C445.066 169.203 518.114 171.072 475.197 229.119C474.447 228.834 466.084 214.05 465.43 214.085C460.578 214.349 457.85 222.579 448.994 225.629C441.84 228.092 413.546 221.271 408.607 243.757C405.838 256.368 409.801 265.87 400.53 267.6C397.27 264.17 390.37 260.644 381.455 263.839Z" fill="#FF8B26"/>
<path fill-rule="evenodd" clip-rule="evenodd" d="M451.762 305.811L470.714 307.551L469.368 333.324L451.762 305.811Z" fill="#DB5F6A"/>
<path fill-rule="evenodd" clip-rule="evenodd" d="M466.865 263.372L454.95 246.015C454.628 245.546 454.754 244.905 455.241 244.586C455.719 244.273 456.36 244.4 456.676 244.86L469.835 264.029C469.878 264.092 469.906 264.164 469.915 264.239C469.924 264.315 469.916 264.391 469.889 264.463C469.863 264.534 469.82 264.598 469.764 264.65C469.708 264.701 469.641 264.739 469.567 264.759L457.77 267.964C457.213 268.115 456.645 267.791 456.496 267.251C456.347 266.709 456.67 266.141 457.229 265.99L466.865 263.372ZM441.673 242.597C438.709 244.603 435.82 243.353 434.146 244.709C432.498 246.046 431.59 247.87 431.048 249.693C430.757 250.672 429.707 251.246 428.704 250.975C427.701 250.704 427.123 249.692 427.414 248.713C428.16 246.206 429.477 243.737 431.744 241.898C433.987 240.08 437.655 240.892 441.789 238.92C442.732 238.471 443.654 239.776 443.622 240.792C443.59 241.807 442.538 242.011 441.673 242.597ZM475.253 281.406C467.308 270.315 453.033 272.283 445.086 274.659C444.955 274.697 444.833 274.76 444.727 274.846C444.622 274.932 444.534 275.038 444.471 275.159C444.407 275.279 444.369 275.411 444.357 275.547C444.346 275.682 444.362 275.819 444.405 275.948C444.578 276.479 445.158 276.782 445.702 276.619C453.026 274.43 466.236 272.359 473.556 282.58C473.716 282.8 473.955 282.95 474.223 282.999C474.491 283.047 474.767 282.991 474.994 282.841C475.108 282.766 475.205 282.668 475.28 282.554C475.355 282.441 475.406 282.313 475.43 282.179C475.454 282.045 475.451 281.907 475.421 281.774C475.39 281.642 475.333 281.516 475.253 281.406ZM459.281 231.744C466.306 226.612 471.878 230.104 474.197 231.535C474.405 231.661 474.584 231.828 474.726 232.025C474.867 232.222 474.967 232.446 475.019 232.683C475.071 232.92 475.075 233.165 475.03 233.404C474.985 233.642 474.893 233.869 474.758 234.071C474.19 234.93 473.019 235.188 472.141 234.647C470.491 233.629 466.528 231.022 461.53 234.674C460.69 235.287 459.505 235.129 458.885 234.32C458.263 233.511 458.441 232.358 459.281 231.744ZM470.962 239.576C472.797 239.192 474.722 240.96 475.259 243.522C475.796 246.084 474.742 248.476 472.907 248.861C471.073 249.245 469.148 247.477 468.611 244.915C468.074 242.353 469.128 239.961 470.962 239.576ZM437.305 250.571C439.139 250.186 441.064 251.954 441.602 254.516C442.138 257.079 441.085 259.471 439.25 259.855C437.416 260.24 435.49 258.472 434.953 255.909C434.416 253.347 435.47 250.955 437.305 250.571ZM390.416 277.496C389.039 277.766 388.179 278.116 387.604 278.578C387.053 279.02 386.795 279.559 386.536 280.145C386.309 280.657 385.703 280.902 385.179 280.688C385.053 280.638 384.938 280.562 384.841 280.466C384.744 280.371 384.668 280.256 384.617 280.13C384.566 280.004 384.54 279.869 384.543 279.732C384.545 279.596 384.575 279.462 384.63 279.338C385.023 278.449 385.461 277.665 386.295 276.995C386.712 276.659 387.235 276.349 387.921 276.079C386.783 275.832 385.473 275.979 383.97 276.522C383.428 276.717 382.836 276.442 382.641 275.918C382.445 275.39 382.719 274.797 383.266 274.599C385.759 273.698 387.853 273.721 389.599 274.465C391.33 275.204 392.746 276.674 393.841 278.814C394.099 279.318 393.893 279.938 393.372 280.195C392.857 280.448 392.236 280.243 391.982 279.746C391.524 278.85 391.007 278.093 390.416 277.496Z" fill="black"/>
<path fill-rule="evenodd" clip-rule="evenodd" d="M342.195 584.639L539.645 603.208C578.155 573.039 579.828 578.959 560.373 605.58C634.309 596.858 638.889 602.348 594.335 617.907C635.25 617.94 635.075 623.147 591.837 633.778C629.379 636.815 641.929 640.848 603.586 646.91C645.748 649.96 610.921 656.348 529.478 664.757L302.169 674.002C302.169 674.002 289.963 674.867 276.103 668.816C239.272 652.734 237.746 612.241 246.857 594.76C262.955 563.874 342.195 584.639 342.195 584.639Z" fill="#FFB3A4"/>
<path fill-rule="evenodd" clip-rule="evenodd" d="M406.107 592.223C406.354 592.252 406.601 592.181 406.796 592.027C406.99 591.873 407.115 591.648 407.143 591.402C407.172 591.155 407.101 590.908 406.947 590.713C406.793 590.519 406.568 590.394 406.322 590.365L316.697 580.044C316.574 580.028 316.449 580.036 316.329 580.069C316.209 580.101 316.097 580.157 315.999 580.233C315.901 580.31 315.819 580.405 315.758 580.513C315.697 580.622 315.659 580.741 315.644 580.864C315.63 580.988 315.641 581.113 315.675 581.232C315.71 581.352 315.768 581.463 315.846 581.56C315.924 581.656 316.021 581.736 316.13 581.795C316.24 581.854 316.36 581.891 316.483 581.903L406.107 592.223ZM591.576 619.365L591.589 619.364C591.837 619.357 592.072 619.251 592.243 619.071C592.413 618.891 592.505 618.65 592.497 618.402C592.49 618.154 592.385 617.919 592.205 617.749C592.024 617.579 591.784 617.487 591.536 617.494L568.595 618.839L568.582 618.84C568.459 618.843 568.338 618.871 568.226 618.921C568.114 618.971 568.013 619.043 567.929 619.132C567.758 619.313 567.667 619.553 567.674 619.801C567.681 620.049 567.786 620.284 567.966 620.454C568.147 620.625 568.387 620.716 568.635 620.709C568.644 620.709 591.576 619.365 591.576 619.365ZM591.182 634.452L591.195 634.451C591.439 634.438 591.669 634.331 591.835 634.151C592.001 633.972 592.09 633.734 592.083 633.49C592.076 633.245 591.974 633.013 591.798 632.843C591.622 632.674 591.386 632.579 591.142 632.581L568.201 633.926L568.188 633.927C568.065 633.93 567.944 633.958 567.832 634.008C567.72 634.058 567.619 634.13 567.534 634.219C567.364 634.4 567.272 634.64 567.28 634.888C567.287 635.136 567.392 635.371 567.572 635.541C567.753 635.712 567.993 635.803 568.241 635.796C568.249 635.796 591.182 634.452 591.182 634.452ZM593.123 648.28L593.136 648.28C593.38 648.267 593.61 648.16 593.776 647.98C593.942 647.8 594.031 647.563 594.024 647.319C594.017 647.074 593.914 646.842 593.738 646.672C593.562 646.502 593.327 646.408 593.082 646.41C593.074 646.41 570.141 647.755 570.141 647.755L570.128 647.755C569.88 647.762 569.645 647.868 569.475 648.048C569.305 648.229 569.213 648.469 569.22 648.717C569.227 648.965 569.333 649.2 569.513 649.37C569.693 649.54 569.934 649.632 570.182 649.625L593.123 648.28Z" fill="black"/>
<path fill-rule="evenodd" clip-rule="evenodd" d="M601.41 559.354C656.569 643.26 728.972 588.671 672.426 507.296C629.168 445.046 554.893 342.671 543.847 332.429C532.188 321.619 510.664 315.65 496.437 312.129C481.371 308.4 461.686 309.916 461.588 312.154C460.935 326.912 495.379 330.357 502.549 333.891C477.861 339.411 474.227 350.775 485.709 353.308C476.433 357.901 480.511 368.049 482.853 368.236C476.606 373.345 475.943 379.449 480.643 389.721C483.066 395.018 494.827 404.871 502.513 408.58C508.875 411.65 509.788 402.134 510.822 404.173C516.59 418.295 524.857 426.058 534.835 429.466L601.41 559.354Z" fill="#FFB3A4"/>
<path fill-rule="evenodd" clip-rule="evenodd" d="M486.288 354.007L486.275 354.009C486.154 354.024 486.03 354.015 485.912 353.982C485.793 353.949 485.682 353.893 485.586 353.818C485.489 353.742 485.408 353.649 485.347 353.542C485.287 353.435 485.248 353.317 485.233 353.195C485.218 353.073 485.227 352.95 485.259 352.831C485.292 352.713 485.348 352.602 485.423 352.505C485.499 352.409 485.593 352.328 485.7 352.267C485.806 352.206 485.924 352.168 486.046 352.152C486.054 352.151 508.927 350.019 508.927 350.019L508.94 350.017C509.182 349.995 509.423 350.068 509.613 350.221C509.802 350.373 509.924 350.594 509.954 350.835C509.984 351.076 509.918 351.319 509.772 351.513C509.626 351.707 509.41 351.837 509.169 351.874L486.288 354.007ZM501.993 334.426L501.979 334.428C501.736 334.46 501.49 334.396 501.293 334.248C501.097 334.1 500.967 333.882 500.93 333.639C500.894 333.396 500.955 333.148 501.1 332.95C501.244 332.751 501.461 332.618 501.703 332.578L524.524 329.872L524.537 329.87C524.78 329.837 525.027 329.902 525.223 330.049C525.419 330.197 525.55 330.416 525.586 330.659C525.622 330.902 525.561 331.149 525.417 331.348C525.272 331.546 525.055 331.68 524.813 331.72L501.993 334.426ZM483.625 369.602C483.501 369.598 483.38 369.57 483.267 369.519C483.155 369.468 483.053 369.395 482.969 369.305C482.885 369.214 482.819 369.108 482.776 368.992C482.733 368.876 482.714 368.753 482.719 368.629C482.724 368.506 482.753 368.384 482.805 368.272C482.857 368.16 482.931 368.059 483.023 367.976C483.114 367.893 483.221 367.828 483.337 367.787C483.454 367.745 483.577 367.726 483.701 367.733L506.612 369.502L506.625 369.503C506.87 369.52 507.098 369.631 507.261 369.814C507.424 369.997 507.509 370.236 507.497 370.481C507.486 370.725 507.379 370.956 507.199 371.122C507.02 371.289 506.782 371.378 506.537 371.372L483.625 369.602ZM492.882 387.628L492.872 387.62C492.683 387.459 492.565 387.23 492.545 386.983C492.525 386.736 492.604 386.491 492.765 386.302C492.925 386.112 493.154 385.995 493.401 385.975C493.649 385.955 493.894 386.033 494.083 386.194L511.147 401.586C511.337 401.745 511.456 401.974 511.478 402.221C511.5 402.468 511.423 402.714 511.264 402.904C511.104 403.094 510.876 403.214 510.629 403.235C510.382 403.257 510.136 403.18 509.946 403.021L492.882 387.628Z" fill="black"/>
<path fill-rule="evenodd" clip-rule="evenodd" d="M45.5176 -0.340332H339.374V237.134H45.5176V-0.340332ZM53.506 8.35212H331.385V228.442H53.506V8.35212ZM71.7249 88.5473H120.038V198.153H71.7249V88.5473ZM264.853 100.534H313.167V198.153H264.853V100.534ZM200.477 66.0549H248.79V198.153H200.477V66.0549ZM136.101 38.6413H184.414V198.153H136.101V38.6413Z" fill="#9DC9FC"/>
<path fill-rule="evenodd" clip-rule="evenodd" d="M170.695 322.506C172.645 322.676 174.59 322.893 176.53 323.155C176.799 321.91 186.203 323.748 186.076 324.939C186.086 324.941 186.096 324.943 186.106 324.945C191.768 326.353 196.15 328.21 198.799 330.381C200.69 331.931 201.721 333.661 201.811 335.49C201.883 336.933 201.37 338.376 200.305 339.781C199.306 341.101 197.809 342.396 195.872 343.635C195.119 344.114 194.347 344.562 193.558 344.978C193.95 346.529 193.407 348.244 192.101 349.189C190.464 350.372 188.244 349.899 187.146 348.135C187.09 348.045 187.038 347.953 186.99 347.859C182.829 349.392 177.923 350.76 172.47 351.893C176.967 362.112 179.705 371.152 180.273 377.613C180.486 380.031 180.396 382.098 179.997 383.746C179.571 385.501 178.79 386.798 177.667 387.586C176.544 388.373 175.128 388.617 173.466 388.325C171.907 388.052 170.118 387.303 168.153 386.113C162.871 382.914 156.262 376.491 149.37 367.835C148.12 369.807 146.824 371.75 145.481 373.661C146.347 374.536 146.919 375.752 147.005 377.127C147.184 380.008 145.16 382.505 142.487 382.698C141.292 382.784 140.168 382.396 139.275 381.682C139.268 381.69 139.261 381.698 139.254 381.707C135.293 386.289 131.61 389.451 128.541 390.838C126.35 391.828 124.445 391.926 122.93 391.095C121.736 390.441 120.832 389.241 120.236 387.544C119.676 385.951 119.383 383.906 119.357 381.478C119.347 380.586 119.373 379.641 119.435 378.646C119.608 375.831 120.305 371.073 120.404 371.074C121.288 366.231 122.72 360.724 124.651 354.797C113.909 353.911 105.038 351.922 99.4522 349.168C97.4035 348.158 95.7877 347.041 94.6638 345.843C93.4666 344.568 92.8149 343.191 92.7439 341.749C92.6724 340.306 93.1848 338.863 94.2497 337.458C95.2493 336.138 96.7458 334.843 98.6837 333.604C104.019 330.193 112.764 327.174 123.506 325.059C122.568 322.948 121.677 320.816 120.836 318.665C119.701 319.036 118.438 318.962 117.289 318.354C114.885 317.082 113.892 313.944 115.073 311.352C115.601 310.193 116.476 309.338 117.496 308.861C117.492 308.851 117.489 308.84 117.486 308.83C115.785 302.84 115.086 297.821 115.506 294.263C115.806 291.722 116.681 289.895 118.105 288.896C119.228 288.108 120.644 287.865 122.306 288.156C123.865 288.43 125.654 289.179 127.618 290.369C128.383 290.835 129.129 291.331 129.854 291.857C130.905 290.716 132.554 290.365 133.965 291.112C135.734 292.049 136.465 294.357 135.596 296.264C135.552 296.361 135.504 296.456 135.453 296.548C138.915 299.808 142.639 303.916 146.448 308.705C152.38 299.466 158.24 292.442 163.121 288.7C164.957 287.293 166.663 286.343 168.186 285.892C169.81 285.412 171.242 285.492 172.436 286.147C173.63 286.802 174.534 288.002 175.131 289.699C175.69 291.291 175.983 293.336 176.01 295.765C176.081 302.309 174.218 311.715 170.695 322.506ZM125.783 354.886C130.324 355.225 135.185 355.368 140.26 355.293C143.046 359.473 145.858 363.363 148.63 366.898C147.343 368.939 146.006 370.947 144.62 372.922C144.613 372.932 144.606 372.943 144.599 372.954C143.791 372.447 142.839 372.185 141.837 372.257C139.165 372.451 137.14 374.947 137.32 377.828C137.392 378.995 137.816 380.047 138.471 380.873C138.463 380.881 138.456 380.889 138.449 380.897C134.621 385.325 131.08 388.403 128.115 389.743C126.284 390.571 124.695 390.731 123.429 390.037C122.458 389.505 121.751 388.504 121.265 387.123C120.743 385.638 120.483 383.729 120.458 381.464C120.45 380.564 120.474 379.665 120.529 378.767C120.547 378.766 120.865 374.659 121.483 371.275C122.37 366.408 123.821 360.86 125.783 354.886ZM171.358 352.119C175.863 362.296 178.611 371.298 179.177 377.725C179.375 379.98 179.304 381.908 178.931 383.445C178.584 384.873 177.98 385.95 177.066 386.59C176.153 387.231 174.995 387.391 173.643 387.154C172.189 386.899 170.525 386.187 168.693 385.078C163.436 381.895 156.862 375.473 150.007 366.822C152.414 362.967 154.825 358.756 157.177 354.263C162.18 353.725 166.94 352.999 171.358 352.119ZM138.531 377.74C138.396 375.58 139.914 373.708 141.919 373.563C143.923 373.417 145.659 375.054 145.794 377.215C145.929 379.375 144.411 381.248 142.406 381.393C140.402 381.538 138.665 379.901 138.531 377.74ZM155.838 354.402C153.678 358.489 151.471 362.334 149.267 365.881C146.727 362.626 144.154 359.071 141.6 355.268C143.764 355.22 145.926 355.133 148.087 355.009C150.675 354.861 153.259 354.659 155.838 354.402ZM131.208 340.435C133.798 345.095 136.558 349.659 139.483 354.117C134.828 354.167 130.362 354.033 126.168 353.731C127.6 349.474 129.285 345.012 131.208 340.435ZM155.436 323.119C156.908 325.365 158.338 327.639 159.725 329.938C161.185 332.356 162.598 334.802 163.962 337.274C162.789 340.049 161.559 342.798 160.273 345.522C159.064 348.087 157.806 350.627 156.498 353.143C151.288 353.682 146.057 354.001 140.82 354.098C139.176 351.613 137.585 349.094 136.047 346.544C134.57 344.099 133.143 341.624 131.764 339.123C132.828 336.635 133.938 334.167 135.093 331.72C136.316 329.125 137.59 326.554 138.915 324.009C141.448 323.759 143.985 323.561 146.527 323.415C149.494 323.245 152.465 323.146 155.436 323.119ZM124.001 326.162C125.897 330.354 128.081 334.729 130.523 339.193C128.41 344.175 126.573 349.03 125.032 353.645C114.316 352.788 105.468 350.829 99.9102 348.089C97.9995 347.146 96.486 346.116 95.4381 344.999C94.4637 343.961 93.9014 342.859 93.8433 341.686C93.7857 340.512 94.2363 339.352 95.1027 338.209C96.0349 336.979 97.4384 335.78 99.2455 334.625C104.556 331.23 113.284 328.243 124.001 326.162ZM164.643 338.519C166.967 342.801 169.05 346.995 170.865 351.016C166.786 351.818 162.416 352.488 157.834 352.999C159.014 350.706 160.155 348.393 161.255 346.06C162.431 343.568 163.561 341.054 164.643 338.519ZM170.313 323.663C172.408 323.843 174.429 324.066 176.366 324.329L176.402 324.332C176.399 325.34 185.493 327.118 185.829 326.094L185.859 326.102C191.33 327.462 195.573 329.228 198.133 331.326C199.713 332.622 200.636 334.024 200.711 335.553C200.77 336.727 200.319 337.887 199.452 339.03C198.52 340.261 197.117 341.459 195.31 342.614C194.593 343.07 193.858 343.498 193.107 343.896C193.098 343.88 193.088 343.864 193.078 343.848C191.98 342.084 189.76 341.611 188.124 342.794C186.888 343.688 186.335 345.271 186.611 346.752C182.431 348.293 177.487 349.663 171.981 350.792C170.023 346.428 167.752 341.863 165.201 337.201C167.154 332.54 168.864 327.996 170.313 323.663ZM191.604 348.389C190.376 349.277 188.711 348.922 187.888 347.599C187.065 346.275 187.393 344.481 188.621 343.593C189.848 342.706 191.514 343.06 192.336 344.384C193.159 345.707 192.831 347.502 191.604 348.389ZM137.583 324.146C136.384 326.471 135.227 328.816 134.111 331.182C133.066 333.398 132.057 335.631 131.085 337.88C128.872 333.798 126.88 329.796 125.129 325.947C129.05 325.219 133.224 324.61 137.583 324.146ZM156.778 323.113C161.11 323.109 165.267 323.267 169.179 323.57C167.84 327.546 166.28 331.698 164.514 335.957C162.083 331.588 159.503 327.304 156.778 323.113ZM124.631 324.842C123.656 322.661 122.732 320.456 121.861 318.231L121.846 318.196C122.657 317.695 123.343 316.937 123.786 315.965C124.966 313.374 123.973 310.236 121.569 308.963C120.595 308.447 119.539 308.316 118.547 308.515C118.545 308.504 118.542 308.493 118.539 308.482C116.896 302.695 116.193 297.851 116.599 294.413C116.849 292.289 117.515 290.726 118.706 289.891C119.619 289.25 120.777 289.091 122.129 289.328C123.583 289.583 125.247 290.295 127.079 291.404C127.808 291.847 128.518 292.319 129.21 292.819L129.186 292.87C128.317 294.777 129.048 297.085 130.817 298.022C132.153 298.729 133.701 298.453 134.753 297.455C138.23 300.728 141.975 304.872 145.807 309.713C143.268 313.734 140.721 318.152 138.239 322.886C133.459 323.376 128.895 324.038 124.631 324.842ZM146.542 310.648C149.231 314.098 151.957 317.882 154.658 321.941C151.983 321.975 149.249 322.071 146.468 322.23C144.13 322.364 141.829 322.54 139.573 322.754C141.864 318.424 144.205 314.366 146.542 310.648ZM147.183 309.636C153.076 300.41 158.902 293.392 163.759 289.668C165.472 288.355 167.056 287.457 168.477 287.037C169.798 286.647 170.965 286.673 171.937 287.205C172.909 287.738 173.615 288.739 174.101 290.12C174.623 291.605 174.884 293.514 174.909 295.779C174.98 302.291 173.1 311.663 169.565 322.411C165.305 322.071 160.755 321.903 156.002 321.928C153.071 317.488 150.105 313.366 147.183 309.636ZM121.034 310.137C122.837 311.092 123.582 313.445 122.697 315.389C121.811 317.333 119.628 318.136 117.825 317.181C116.021 316.226 115.276 313.873 116.162 311.929C117.048 309.985 119.231 309.182 121.034 310.137ZM133.572 291.976C134.898 292.679 135.447 294.41 134.795 295.84C134.143 297.27 132.537 297.861 131.21 297.158C129.884 296.456 129.336 294.724 129.987 293.294C130.639 291.864 132.245 291.273 133.572 291.976Z" fill="#84B6F8"/>
</g>
<defs>
<clipPath id="clip0_179_140">
<rect width="900" height="674" fill="white"/>
</clipPath>
</defs>
</svg>
